<?xml version="1.0" encoding="UTF-8" standalone="no" ?>
<!DOCTYPE svg PUBLIC "-//W3C//DTD SVG 1.1//EN" "http://www.w3.org/Graphics/SVG/1.1/DTD/svg11.dtd">
<svg xmlns="http://www.w3.org/2000/svg"
    xmlns:xlink="http://www.w3.org/1999/xlink" version="1.1" width="520" height="126" viewBox="0 0 520 126" xml:space="preserve">
    <desc>Created with Fabric.js 3.6.6</desc>
    <defs>
    </defs>
    <g transform="matrix(0.12 0 0 0.12 19.92 19.92)">
        <rect style="stroke: none; stroke-width: 1; stroke-dasharray: none; strokeLinecap: butt; stroke-dashoffset: 0; stroke-linejoin: miter; stroke-miterlimit: 4; fill: rgb(255,221,132); fill-rule: nonzero; opacity: 1;" x="-166.665" y="-166.665" rx="13.333333333333334" ry="13.333333333333334" width="333.33" height="333.33" />
    </g>
    <g transform="matrix(0.2 0 0 0.2 19.94 20.48)">
        <path style="stroke: none; stroke-width: 1; stroke-dasharray: none; strokeLinecap: butt; stroke-dashoffset: 0; stroke-linejoin: miter; stroke-miterlimit: 4; fill: rgb(17,17,17); fill-rule: nonzero; opacity: 1;" transform=" translate(-324.9, -347.12)" d="M 290.33005690194847 422.11732802001603 L 290.33005690194847 422.11732802001603 Q 287.55464221182694 422.11732802001603 284.68352356687353 421.19218978997554 Q 281.81240492192023 420.26705155993506 279.8664245070074 416.821709185991 Q 277.92044409209456 413.376366812047 277.92044409209456 406.26237283621816 L 277.92044409209456 406.26237283621816 Q 277.92044409209456 401.6685830042929 278.8455823221351 394.2036745274142 Q 279.7707205521756 386.7387660505355 281.36578646603857 374.8076730148404 L 281.36578646603857 374.8076730148404 Q 282.5142339240199 367.21515926485273 284.0135958830511 354.48653327222627 Q 285.5129578420823 341.7260059613225 285.5129578420823 327.72132723760564 L 285.5129578420823 327.72132723760564 Q 285.5129578420823 321.5005701735401 285.0344380679234 314.51418147082023 Q 284.5878196120418 307.49589144982315 283.21606292611966 301.75365415991655 L 283.21606292611966 301.75365415991655 Q 280.4406482359981 302.4554831620162 279.06889155007593 302.4554831620162 L 279.06889155007593 302.4554831620162 Q 277.6971348641538 302.4554831620162 276.99530586205407 301.6579502050847 Q 276.32537817823163 300.828515929876 276.32537817823163 298.5316210139133 L 276.32537817823163 298.5316210139133 Q 276.32537817823163 293.9378311819879 277.3462203631039 289.2483373952308 Q 278.3670625479762 284.5269422901964 280.6639574639389 281.3049091441933 L 280.6639574639389 281.3049091441933 Q 282.96085237990155 278.1147773164673 286.08718157107296 276.7111193122679 Q 289.18160944396715 275.33936262634575 292.62695181791116 274.8927441704641 L 292.62695181791116 274.8927441704641 Q 298.3691891078178 274.1909151683644 307.20585427061866 273.61669143937377 Q 316.04251943341956 273.0424677103831 325.8043228262609 272.59584925450145 Q 335.5661262191023 272.11732948034256 343.6052584249716 272.11732948034256 L 343.6052584249716 272.11732948034256 Q 354.41980532096255 272.11732948034256 359.58781888187855 272.3725400265606 Q 364.7558324427946 272.59584925450145 367.4993458146389 273.0424677103831 L 367.4993458146389 273.0424677103831 Q 373.4648923324864 273.9676059404236 373.4648923324864 279.4865340023895 L 373.4648923324864 279.4865340023895 Q 373.4648923324864 283.3784948322151 371.9655303734552 286.4729227051093 Q 370.49806973270125 289.5992518962807 368.4244840446794 292.1194560401842 L 368.4244840446794 292.1194560401842 Q 365.9042799007759 295.788107642069 363.03316125582256 297.2874696011002 Q 360.1620426108692 298.7868315601314 355.5682527789439 298.3083117859725 L 355.5682527789439 298.3083117859725 Q 351.644390630841 297.8616933300909 344.881311156062 297.510778829041 Q 338.08633036300574 297.15986432799116 329.37727047331396 297.15986432799116 L 329.37727047331396 297.15986432799116 Q 325.7086188714291 297.15986432799116 319.71117103530435 297.383173555932 Q 313.74562451745686 297.6383841021501 307.0782489975096 298.08500255803165 L 307.0782489975096 298.08500255803165 Q 306.85493976956883 305.9008255359603 305.70649231158745 315.8859381567424 Q 304.55804485360613 325.87105077752454 303.186288167684 336.20707789935665 L 303.186288167684 336.20707789935665 Q 309.3751439134723 335.760459443475 318.11610512144136 335.40954494242516 Q 326.8570663294105 335.0586304413753 336.04464599326116 334.8353212134345 Q 345.2322256571118 334.61201198549367 352.3462196329407 334.61201198549367 L 352.3462196329407 334.61201198549367 Q 356.46148969070714 334.61201198549367 358.3117661507882 335.632854170366 Q 360.1620426108692 336.6855976735155 360.1620426108692 340.13094004745955 L 360.1620426108692 340.13094004745955 Q 360.1620426108692 344.02290087728517 358.1841608776792 348.48908543610145 Q 356.2381804627663 352.987171313195 353.1437525898722 356.20920445919825 Q 350.049324716978 359.3993362869242 346.603982343034 359.1760270589834 L 346.603982343034 359.1760270589834 Q 340.8617450531273 358.7294086031017 330.3981126581863 358.5060993751609 Q 319.96638158152246 358.2508888289429 308.48190700170903 358.2508888289429 L 308.48190700170903 358.2508888289429 L 301.1127024796621 358.2508888289429 Q 300.6660840237805 363.3231984350271 300.3151695227307 368.26790276800233 Q 299.9642550216808 373.1807057827003 299.9642550216808 377.3278771587439 L 299.9642550216808 377.3278771587439 Q 299.9642550216808 385.36700936461335 301.591222253821 391.4601611555699 Q 303.186288167684 397.5533129465263 307.7800779996094 401.8918922322336 L 307.7800779996094 401.8918922322336 Q 310.77880191767173 404.890616150296 310.77880191767173 408.78257698012163 L 310.77880191767173 408.78257698012163 Q 310.77880191767173 413.85488658620585 305.0365646277651 417.9701566439724 Q 299.29432733785836 422.11732802001603 290.33005690194847 422.11732802001603 Z" strokeLinecap="round" />
    </g>
    <g transform="matrix(0.23 0 0 0.23 109.32 25.95)">
        <path style="stroke: none; stroke-width: 1; stroke-dasharray: none; strokeLinecap: butt; stroke-dashoffset: 0; stroke-linejoin: miter; stroke-miterlimit: 4; fill: rgb(17,17,17); fill-rule: nonzero; opacity: 1;" transform=" translate(-841.25, -347.12)" d="M 584.4621864479976 380.3840711911135 L 584.4621864479976 380.3840711911135 Q 582.5662109063971 380.3840711911135 580.6048568978448 379.7520793439133 Q 578.6435028892924 379.1200874967131 577.3141407279404 376.7664626864503 Q 575.9847785665884 374.41283787618767 575.9847785665884 369.55303849944147 L 575.9847785665884 369.55303849944147 Q 575.9847785665884 366.41487208575774 576.6167704137886 361.3153516635219 Q 577.2487622609887 356.2158312412859 578.338403376851 348.06531569463533 L 578.338403376851 348.06531569463533 Q 579.122944980272 342.87862398313035 580.1472076291826 334.1832878785486 Q 581.1714702780932 325.46615895164956 581.1714702780932 315.89910995437793 L 581.1714702780932 315.89910995437793 Q 581.1714702780932 311.64950960251457 580.8445779433346 306.87688151503744 Q 580.539478430893 302.0824606052429 579.6023870712514 298.15975258813836 L 579.6023870712514 298.15975258813836 Q 577.706411529651 298.63919467911785 576.7693201700092 298.63919467911785 L 576.7693201700092 298.63919467911785 Q 575.8322288103675 298.63919467911785 575.3527867193882 298.09437412118666 Q 574.895137450726 297.5277607409382 574.895137450726 295.95867753409635 L 574.895137450726 295.95867753409635 Q 574.895137450726 292.8205111204127 575.5925077648778 289.6169662397773 Q 576.2898780790298 286.39162853682467 577.8589612858716 284.19055348278266 L 577.8589612858716 284.19055348278266 Q 579.4280444927134 282.0112712510579 581.5637410798037 281.05238706909904 Q 583.6776448445767 280.11529570945737 586.0312696548394 279.8101961970159 L 586.0312696548394 279.8101961970159 Q 589.953977671944 279.33075410603647 595.9905894538216 278.93848330432604 Q 602.0272012356992 278.54621250261556 608.6958048647768 278.2411129901741 Q 615.3644084938546 277.9142206554154 620.856199717801 277.9142206554154 L 620.856199717801 277.9142206554154 Q 628.243966483348 277.9142206554154 631.7744036987422 278.0885632339533 Q 635.3048409141362 278.2411129901741 637.1790236334195 278.54621250261556 L 637.1790236334195 278.54621250261556 Q 641.2542814067448 279.1782043498157 641.2542814067448 282.9483626106995 L 641.2542814067448 282.9483626106995 Q 641.2542814067448 285.60708693340376 640.2300187578342 287.7209906981768 Q 639.2275489312408 289.85668728526707 637.8110154806197 291.5783202483296 L 637.8110154806197 291.5783202483296 Q 636.0893825175572 294.08449481481307 634.1280285090048 295.1087574637237 Q 632.1666745004525 296.1330201126343 629.0285080867689 295.80612777787564 L 629.0285080867689 295.80612777787564 Q 626.3479909417474 295.5010282654342 621.727912610491 295.26130721994446 Q 617.0860414569172 295.0215861744547 611.1366009643086 295.0215861744547 L 611.1366009643086 295.0215861744547 Q 608.6304263978252 295.0215861744547 604.5333758021826 295.17413593067545 Q 600.4581180288574 295.34847850921346 595.9034181645526 295.6535780216549 L 595.9034181645526 295.6535780216549 Q 595.7508684083318 300.9928194893805 594.966326804911 307.81397287467905 Q 594.18178520149 314.63512625997754 593.2446938418484 321.69600069076574 L 593.2446938418484 321.69600069076574 Q 597.4725013713944 321.3909011783243 603.4437346863202 321.15118013283455 Q 609.414968001246 320.9114590873448 615.6913008286134 320.75890933112413 Q 621.9676336559808 320.60635957490337 626.827433032727 320.60635957490337 L 626.827433032727 320.60635957490337 Q 629.6387071116519 320.60635957490337 630.9026908060522 321.3037298890553 Q 632.1666745004525 322.0228930255244 632.1666745004525 324.3765178357872 L 632.1666745004525 324.3765178357872 Q 632.1666745004525 327.03524215849137 630.8155195167832 330.0862372829061 Q 629.486157355431 333.15902522963796 627.3722535906581 335.36010028367997 Q 625.258349825885 337.5393825154047 622.9047250156223 337.38683275918396 L 622.9047250156223 337.38683275918396 Q 618.9820169985178 337.08173324674254 611.8339712784606 336.9291834905218 Q 604.7077183807206 336.75484091198376 596.8623023465116 336.75484091198376 L 596.8623023465116 336.75484091198376 L 591.8281603912274 336.75484091198376 Q 591.5230608787858 340.21989966042617 591.2833398332962 343.59778711959956 Q 591.0436187878064 346.9538817564557 591.0436187878064 349.7869486576979 L 591.0436187878064 349.7869486576979 Q 591.0436187878064 355.2787398816443 592.155052725986 359.44116894423854 Q 593.2446938418484 363.6035980068328 596.382860255532 366.5674218419785 L 596.382860255532 366.5674218419785 Q 598.4313855533533 368.61594713979974 598.4313855533533 371.27467146250393 L 598.4313855533533 371.27467146250393 Q 598.4313855533533 374.73973021094633 594.5086775362488 377.5510042898713 Q 590.5859695191442 380.3840711911135 584.4621864479976 380.3840711911135 Z M 655.0709307558798 380.8635132820929 L 655.0709307558798 380.8635132820929 Q 645.6564315148288 380.8635132820929 639.9249192453926 374.9794512564361 Q 634.1934069759566 369.0953892307792 634.1934069759566 358.1118067828864 L 634.1934069759566 358.1118067828864 Q 634.1934069759566 350.26639074867734 637.2661949226886 342.48635318141993 Q 640.3171900471032 334.7281084364798 646.114080783491 328.45177560911253 Q 651.9327643421962 322.1754427817452 660.0832798888466 318.40528452086136 Q 668.2555882578145 314.63512625997754 678.4546291022864 314.63512625997754 L 678.4546291022864 314.63512625997754 Q 687.8691283433374 314.63512625997754 694.5377319724151 317.86046396293017 Q 701.2063356014928 321.06400884356555 701.2063356014928 326.55580006751194 L 701.2063356014928 326.55580006751194 Q 701.2063356014928 327.9723335181331 700.8794432667341 330.260579861444 Q 700.5743437542927 332.52703338243776 700.0949016633133 333.9435668330589 L 700.0949016633133 333.9435668330589 Q 699.6372523946511 335.18575770514195 698.7655395019611 336.2100203540526 Q 697.8938266092712 337.2342830029633 696.4990859809674 337.2342830029633 L 696.4990859809674 337.2342830029633 Q 695.8670941337672 337.2342830029633 694.1454611707047 336.75484091198376 L 694.1454611707047 336.75484091198376 Q 693.5134693235045 340.0673499042054 693.1865769887457 343.20551631788913 Q 692.8814774763043 346.34368273157276 692.8814774763043 349.4818491452564 L 692.8814774763043 349.4818491452564 Q 692.8814774763043 355.43128963786495 694.6902817286359 360.07316079143874 Q 696.4990859809674 364.69323912269516 701.8165346263759 365.78288023855754 L 701.8165346263759 365.78288023855754 Q 703.2330680769969 366.1097725733163 704.1047809696868 366.7417644205165 Q 704.9547010400595 367.35196344539946 704.9547010400595 369.4004887432207 L 704.9547010400595 369.4004887432207 Q 704.9547010400595 371.1221217062833 704.1047809696868 373.8026388513047 Q 703.2330680769969 376.4613631740089 700.8140647997824 378.5752669387819 Q 698.3732687002507 380.6891707035549 693.8185688359459 380.6891707035549 L 693.8185688359459 380.6891707035549 Q 687.6947857647993 380.6891707035549 684.404069594895 376.22164212851914 Q 681.1133534249906 371.75411355348336 681.1133534249906 363.4292554282949 L 681.1133534249906 363.4292554282949 Q 676.8855458954446 371.1221217062833 670.3694920225876 375.9819210830295 Q 663.8534381497306 380.8635132820929 655.0709307558798 380.8635132820929 Z M 660.0832798888466 364.5406893664745 L 660.0832798888466 364.5406893664745 Q 666.359612716214 364.5406893664745 671.1540336260085 360.6179813493699 Q 675.9266617134857 356.69527333226534 678.6071788585072 350.7240400173395 L 678.6071788585072 350.7240400173395 Q 680.3288118215697 346.9538817564557 681.2659031812113 342.48635318141993 Q 682.202994540853 338.01882460638416 682.5298868756117 333.61667449830014 L 682.5298868756117 333.61667449830014 Q 679.8493697305903 332.374483626217 676.4061038044651 331.58994202279615 Q 672.96283787834 330.8054004193752 669.1926796174562 330.8054004193752 L 669.1926796174562 330.8054004193752 Q 659.6256306201844 330.8054004193752 653.414676259769 336.44974139954235 Q 647.2255147216706 342.0940823797095 647.2255147216706 350.57149026111875 L 647.2255147216706 350.57149026111875 Q 647.2255147216706 356.8478230884861 650.6687806477958 360.6833598163217 Q 654.133839396238 364.5406893664745 660.0832798888466 364.5406893664745 Z M 727.8807501178039 300.84026973315986 L 727.8807501178039 300.84026973315986 Q 723.4786000097199 300.66592715462184 720.8198756870157 298.15975258813836 Q 718.1393585419942 295.6535780216549 718.1393585419942 291.09887815735016 L 718.1393585419942 291.09887815735016 Q 718.291908298215 286.2390787806039 721.4300747118987 283.1880836561893 Q 724.5682411255823 280.11529570945737 729.4498333246457 280.2678454656781 L 729.4498333246457 280.2678454656781 Q 733.9827403666333 280.4421880442161 736.5760862223857 282.9483626106995 Q 739.1694320781381 285.45453717718306 739.0168823219174 290.0092370414878 L 739.0168823219174 290.0092370414878 Q 738.8643325656967 294.71648666201327 735.8787159082337 297.7674817864279 Q 732.8930992507708 300.84026973315986 727.8807501178039 300.84026973315986 Z M 728.0332998740247 380.3840711911135 L 728.0332998740247 380.3840711911135 Q 723.3260502534991 380.3840711911135 720.6455331084777 377.79072533536095 Q 717.9868087857735 375.1973794796085 717.9868087857735 368.9210466522413 L 717.9868087857735 368.9210466522413 Q 717.9868087857735 365.32523096989536 718.6841790999254 361.86017222145307 Q 719.4033422363946 358.4169062953279 720.3404335960363 355.12619012542353 L 720.3404335960363 355.12619012542353 Q 721.4300747118987 351.66113137698113 722.1492378483678 348.06531569463533 Q 722.8466081625197 344.4477071899723 722.8466081625197 340.37244941664693 L 722.8466081625197 340.37244941664693 Q 722.8466081625197 337.5393825154047 722.0620665590989 334.96782948196955 Q 721.2775249556779 332.374483626217 718.6188006329737 331.1104999318167 L 718.6188006329737 331.1104999318167 Q 716.5702753351525 330.02085881595434 715.0883634175796 328.84404641082295 Q 713.5846586776895 327.66723400569157 713.5846586776895 325.7712584640911 L 713.5846586776895 325.7712584640911 Q 713.5846586776895 323.59197623236633 715.6331839755107 321.06400884356555 Q 717.681709273332 318.5578342770821 721.0378039101881 316.74903002475054 Q 724.4156913693615 314.9620185947362 728.0332998740247 314.9620185947362 L 728.0332998740247 314.9620185947362 Q 731.9560078911293 314.9620185947362 733.7648121434607 316.9887510702403 Q 735.5518235734751 319.03727636806155 736.1838154206753 322.1754427817452 Q 736.8158072678755 325.3136091954288 736.8158072678755 328.6043253653332 L 736.8158072678755 328.6043253653332 Q 736.8158072678755 333.61667449830014 736.0312656644545 338.4110954080946 Q 735.2467240610335 343.20551631788913 734.4621824576127 347.28077409121437 L 734.4621824576127 347.28077409121437 Q 733.8301906104125 350.26639074867734 733.525091097971 352.77256531516076 Q 733.1981987632123 355.2787398816443 733.1981987632123 357.4798149356863 L 733.1981987632123 357.4798149356863 Q 733.1981987632123 361.4025229527908 735.0941743048129 363.3638769613431 Q 736.9683570240961 365.32523096989536 740.4334157725385 367.04686393295793 L 740.4334157725385 367.04686393295793 Q 741.8281564008423 367.8314055363789 741.8281564008423 369.4004887432207 L 741.8281564008423 369.4004887432207 Q 741.8281564008423 370.664472437621 740.5859655287593 373.3231967603252 Q 739.3219818343589 375.9819210830295 736.2709867099443 378.1829961370715 Q 733.1981987632123 380.3840711911135 728.0332998740247 380.3840711911135 Z M 763.010779693207 380.53662094733414 L 763.010779693207 380.53662094733414 Q 760.5046051267235 380.53662094733414 759.0226932091507 379.68670087696154 Q 757.5189884692606 378.8149879842717 757.9984305602401 376.7664626864503 L 757.9984305602401 376.7664626864503 Q 759.7200635233025 370.0324805904209 760.8968759284339 363.03698462658434 Q 762.0736883335653 356.06328148506515 762.0736883335653 349.63439890147714 L 762.0736883335653 349.63439890147714 Q 762.0736883335653 341.30954077628854 761.0494256846547 337.47400404845297 Q 760.0469558580613 333.61667449830014 758.3035300726815 332.13476258072734 Q 756.5818971096189 330.65285066315454 754.0757225431355 329.8683090597336 L 754.0757225431355 329.8683090597336 Q 752.9860814272731 329.38886696875414 752.1143685345833 328.6043253653332 Q 751.2426556418933 327.81978376191233 751.2426556418933 326.4032503112912 L 751.2426556418933 326.4032503112912 Q 751.2426556418933 324.20217525724917 752.9860814272731 321.543450934545 Q 754.7077143903357 318.8847266118408 757.8458808040193 316.92337260328856 Q 760.9840472177029 314.9620185947362 765.0593049910283 314.9620185947362 L 765.0593049910283 314.9620185947362 Q 770.3985464587539 314.9620185947362 772.5124502235269 318.64500556635113 Q 774.6263539883 322.32799253796594 774.6263539883 328.29922585289177 L 774.6263539883 328.29922585289177 Q 777.4594208895421 322.0228930255244 781.6218499521365 318.31811323159235 Q 785.7624861924135 314.63512625997754 792.0388190197807 314.63512625997754 L 792.0388190197807 314.63512625997754 Q 796.2884193716441 314.63512625997754 799.099693450569 316.53110180157813 Q 801.9327603518111 318.40528452086136 801.9327603518111 322.63309205040736 L 801.9327603518111 322.63309205040736 Q 801.9327603518111 326.8826924022707 799.1868647398379 330.56567937388553 Q 796.4409691278648 334.24866634550034 793.6079022266226 334.24866634550034 L 793.6079022266226 334.24866634550034 Q 793.1502529579604 334.24866634550034 792.5182611107602 334.0961165892796 Q 791.88626926356 333.9435668330589 791.4286199948979 333.3115749858587 L 791.4286199948979 333.3115749858587 Q 789.3800946970766 330.8054004193752 786.3944780396137 330.8054004193752 L 786.3944780396137 330.8054004193752 Q 781.8397781753089 330.8054004193752 778.3965122491838 336.75484091198376 Q 774.9532463230587 342.7260742269097 774.6263539883 353.23021458382294 L 774.6263539883 353.23021458382294 Q 774.7789037445207 357.1529226009275 774.8660750337897 361.2499731965701 Q 774.9532463230587 365.32523096989536 774.9532463230587 367.1994136891787 L 774.9532463230587 367.1994136891787 Q 774.9532463230587 373.01809724788376 771.7279086201061 376.7664626864503 Q 768.5025709171534 380.53662094733414 763.010779693207 380.53662094733414 Z M 813.5483346469041 422.1173259286425 L 813.5483346469041 422.1173259286425 Q 807.1194520633161 422.1173259286425 802.4775809097423 418.67406000251736 Q 797.8575025784859 415.2090012540751 797.8575025784859 409.41211051768727 L 797.8575025784859 409.41211051768727 Q 797.8575025784859 404.8574106533825 800.6033981904591 401.6538657727471 Q 803.3492938024323 398.4285280697945 807.4245515757575 398.4285280697945 L 807.4245515757575 398.4285280697945 Q 809.2987342950408 398.4285280697945 810.0832758984618 399.0605199169947 Q 810.8678175018827 399.69251176419476 811.3472595928621 400.4770533676157 L 811.3472595928621 400.4770533676157 Q 812.6112432872625 402.5037858431197 814.245704961056 404.00749058300977 Q 815.9019594571669 405.4894025005827 818.7132335360918 405.4894025005827 L 818.7132335360918 405.4894025005827 Q 822.4833917969756 405.4894025005827 826.0138290123698 402.8306781778785 Q 829.5442662277638 400.15016103285706 832.5298828852267 396.7068951067319 L 832.5298828852267 396.7068951067319 Q 835.188607207931 393.72127844926894 838.9587654688148 388.14231593605365 Q 842.7289237296986 382.5851462451555 846.4990819905825 375.5242718143673 L 846.4990819905825 375.5242718143673 Q 843.03402324214 378.50988847183015 840.0701994069944 379.8392506331823 Q 837.0845827495315 381.16861279453434 834.4040656045102 381.16861279453434 L 834.4040656045102 381.16861279453434 Q 831.1133494346057 381.16861279453434 827.975183020922 378.7278166950027 Q 824.8370166072384 376.30881341778814 824.0524750038174 369.55303849944147 L 824.0524750038174 369.55303849944147 Q 823.5948257351553 364.38813961025375 822.2436707514859 358.1118067828864 Q 820.9143085901337 351.83547395551915 818.9529545815815 345.95141192986233 Q 816.9916005730292 340.0673499042054 814.1803264941043 335.9702993085629 L 814.1803264941043 335.9702993085629 Q 813.0688925559247 334.0961165892796 811.6523591053035 333.15902522963796 Q 810.2576184769997 332.22193386999635 807.5771013319783 331.89504153523757 L 807.5771013319783 331.89504153523757 Q 805.702918612695 331.7424917790169 805.1580980547639 330.8054004193752 Q 804.5914846745154 329.8683090597336 804.5914846745154 327.81978376191233 L 804.5914846745154 327.81978376191233 Q 804.5914846745154 322.1754427817452 807.729651088199 318.7103840333029 Q 810.8678175018827 315.26711810717774 816.2070589696083 315.26711810717774 L 816.2070589696083 315.26711810717774 Q 822.6359415531963 315.26711810717774 825.4690084544386 320.21408877319294 Q 828.3020753556807 325.16105943920815 830.3288078311848 332.22193386999635 L 830.3288078311848 332.22193386999635 Q 831.1133494346057 335.0332079489213 831.9850623272955 339.675079102495 Q 832.8349823976682 344.2951574337515 833.5541455341374 349.63439890147714 Q 834.2515158482893 354.97364036920277 834.578408183048 359.83343974594897 L 834.578408183048 359.83343974594897 Q 834.7309579392688 363.2767056720741 838.5011162001526 363.2767056720741 L 838.5011162001526 363.2767056720741 Q 843.5134653331195 363.2767056720741 848.0681651974243 360.1385392583905 Q 852.622865061729 357.00037284470676 855.521310429923 351.9880237117399 Q 858.4197557981169 346.9538817564557 858.4197557981169 341.4620905325093 L 858.4197557981169 341.4620905325093 Q 858.4197557981169 338.3239241188257 857.635214194696 335.81774955234215 Q 856.850672591275 333.3115749858587 854.9764898719918 331.4373922665754 L 854.9764898719918 331.4373922665754 Q 853.4074066651499 329.5414167249749 852.448522483191 328.3646043198435 Q 851.5114311235494 327.18779191471214 851.5114311235494 325.6187087078703 L 851.5114311235494 325.6187087078703 Q 851.5114311235494 322.95998438516614 854.017605690033 320.60635957490337 Q 856.5455730788335 318.2527347646406 860.0760102942277 316.6836515577988 Q 863.6064475096218 315.114568350957 866.265171832326 315.114568350957 L 866.265171832326 315.114568350957 Q 870.9724214528514 315.114568350957 872.5415046596934 319.58209692599274 Q 874.1105878665352 324.0496255010285 873.3260462631142 329.38886696875414 L 873.3260462631142 329.38886696875414 Q 872.3889549034726 336.75484091198376 869.5558880022304 346.80133200023494 Q 866.7446139233055 356.8478230884861 862.2552925259524 367.8314055363789 Q 857.7877639509167 378.8149879842717 852.0562516814806 389.1012001180125 Q 846.3465322343617 399.3656194294361 839.8958568284564 407.0584857074245 L 839.8958568284564 407.0584857074245 Q 834.4040656045102 413.8142606257713 827.6700835084805 417.9548968660483 Q 820.9143085901337 422.1173259286425 813.5483346469041 422.1173259286425 Z M 907.8458768136343 380.8635132820929 L 907.8458768136343 380.8635132820929 Q 898.2788278163628 380.8635132820929 894.1163987537684 374.5000091654567 Q 889.953969691174 368.1365050488203 889.953969691174 358.1118067828864 L 889.953969691174 358.1118067828864 Q 889.953969691174 354.49419827822334 890.3462404928846 351.0509323520982 Q 890.7385112945951 347.5858736036559 891.2179533855744 344.14260767753075 L 891.2179533855744 344.14260767753075 Q 891.6756026542366 340.67754892908835 892.1550447452162 337.38683275918396 Q 892.6344868361956 334.0961165892796 892.939586348637 331.1104999318167 L 892.939586348637 331.1104999318167 Q 889.6488701787326 332.04759129145833 886.3581540088283 332.04759129145833 L 886.3581540088283 332.04759129145833 Q 882.893095260386 332.04759129145833 882.893095260386 329.2363172125334 L 882.893095260386 329.2363172125334 Q 882.893095260386 326.2507005550705 885.5736124054074 321.9357217362555 Q 888.2323367281116 317.6207429174405 892.2422160344852 313.3929353878944 Q 896.2303025185415 309.1433350360312 900.240181824915 306.24488966783724 Q 904.2282683089713 303.3464442996433 907.0613352102134 303.3464442996433 L 907.0613352102134 303.3464442996433 Q 910.5046011363386 303.3464442996433 910.5046011363386 309.29588479225185 L 910.5046011363386 309.29588479225185 Q 910.5046011363386 310.86496799909366 910.2866729131661 312.52122249520454 Q 910.0469518676764 314.17747699131536 909.7200595329177 315.89910995437793 L 909.7200595329177 315.89910995437793 Q 912.7056761903806 315.26711810717774 915.7784641371125 314.7876760161983 Q 918.8294592615271 314.330026747536 921.6625261627694 314.330026747536 L 921.6625261627694 314.330026747536 Q 925.2583418451152 314.330026747536 927.2196958536674 315.57221761961915 Q 929.1810498622197 316.83620131401955 929.1810498622197 320.4538098186826 L 929.1810498622197 320.4538098186826 Q 929.1810498622197 324.20217525724917 927.3722456098882 327.9723335181331 Q 925.5852341798739 331.7424917790169 923.384159125832 331.7424917790169 L 923.384159125832 331.7424917790169 Q 922.9047170348524 331.7424917790169 921.81507591899 331.58994202279615 Q 920.7036419808104 331.4373922665754 919.1345587739686 331.1104999318167 L 919.1345587739686 331.1104999318167 Q 917.1078262984645 330.65285066315454 913.9696598847809 330.1734085721751 Q 910.8314934710972 329.69396648119556 906.4293433630132 329.69396648119556 L 906.4293433630132 329.69396648119556 Q 905.3397022471509 334.575558680259 904.467989354461 339.675079102495 Q 903.6180692840883 344.77459952473095 903.6180692840883 348.8498572980562 L 903.6180692840883 348.8498572980562 Q 903.6180692840883 357.9374642043485 908.1509763260758 361.2499731965701 Q 912.7056761903806 364.5406893664745 921.3356338280106 364.5406893664745 L 921.3356338280106 364.5406893664745 Q 924.0161509730322 364.5406893664745 925.1057920888945 365.3906094368471 Q 926.1954332047569 366.2623223295371 926.1954332047569 368.463397383579 L 926.1954332047569 368.463397383579 Q 926.1954332047569 373.6282962727667 920.8779845593485 377.24590477742976 Q 915.5387430916228 380.8635132820929 907.8458768136343 380.8635132820929 Z M 956.0080141347514 380.8635132820929 L 956.0080141347514 380.8635132820929 Q 946.5935148937006 380.8635132820929 940.8837954465816 374.9794512564361 Q 935.1522831771456 369.0953892307792 935.1522831771456 358.1118067828864 L 935.1522831771456 358.1118067828864 Q 935.1522831771456 350.26639074867734 938.2032783015602 342.48635318141993 Q 941.2760662482922 334.7281084364798 947.07295698468 328.45177560911253 Q 952.8698477210678 322.1754427817452 961.0421560900356 318.40528452086136 Q 969.1926716366863 314.63512625997754 979.3917124811582 314.63512625997754 L 979.3917124811582 314.63512625997754 Q 988.8062117222091 314.63512625997754 995.4748153512869 317.86046396293017 Q 1002.1434189803647 321.06400884356555 1002.1434189803647 326.55580006751194 L 1002.1434189803647 326.55580006751194 Q 1002.1434189803647 327.9723335181331 1001.8383194679232 330.260579861444 Q 1001.5114271331645 332.52703338243776 1001.0537778645023 333.9435668330589 L 1001.0537778645023 333.9435668330589 Q 1000.5743357735228 335.18575770514195 999.7244157031502 336.2100203540526 Q 998.8527028104602 337.2342830029633 997.4361693598391 337.2342830029633 L 997.4361693598391 337.2342830029633 Q 996.804177512639 337.2342830029633 995.0825445495764 336.75484091198376 L 995.0825445495764 336.75484091198376 Q 994.4505527023762 340.0673499042054 994.1454531899348 343.20551631788913 Q 993.8403536774933 346.34368273157276 993.8403536774933 349.4818491452564 L 993.8403536774933 349.4818491452564 Q 993.8403536774933 355.43128963786495 995.6273651075076 360.07316079143874 Q 997.4361693598391 364.69323912269516 1002.7754108275649 365.78288023855754 L 1002.7754108275649 365.78288023855754 Q 1004.1919442781859 366.1097725733163 1005.0418643485585 366.7417644205165 Q 1005.9135772412485 367.35196344539946 1005.9135772412485 369.4004887432207 L 1005.9135772412485 369.4004887432207 Q 1005.9135772412485 371.1221217062833 1005.0418643485585 373.8026388513047 Q 1004.1919442781859 376.4613631740089 1001.7511481786541 378.5752669387819 Q 999.3321449014397 380.6891707035549 994.777445037135 380.6891707035549 L 994.777445037135 380.6891707035549 Q 988.6536619659885 380.6891707035549 985.362945796084 376.22164212851914 Q 982.0722296261796 371.75411355348336 982.0722296261796 363.4292554282949 L 982.0722296261796 363.4292554282949 Q 977.8226292743163 371.1221217062833 971.3065754014593 375.9819210830295 Q 964.8123143509196 380.8635132820929 956.0080141347514 380.8635132820929 Z M 961.0421560900356 364.5406893664745 L 961.0421560900356 364.5406893664745 Q 967.318488917403 364.5406893664745 972.0911170048803 360.6179813493699 Q 976.8855379146747 356.69527333226534 979.5442622373789 350.7240400173395 L 979.5442622373789 350.7240400173395 Q 981.2876880227587 346.9538817564557 982.2247793824004 342.48635318141993 Q 983.161870742042 338.01882460638416 983.4669702544835 333.61667449830014 L 983.4669702544835 333.61667449830014 Q 980.8082459317793 332.374483626217 977.3649800056542 331.58994202279615 Q 973.8999212572118 330.8054004193752 970.1297629963279 330.8054004193752 L 970.1297629963279 330.8054004193752 Q 960.5627139990562 330.8054004193752 954.3735524609579 336.44974139954235 Q 948.1625981005424 342.0940823797095 948.1625981005424 350.57149026111875 L 948.1625981005424 350.57149026111875 Q 948.1625981005424 356.8478230884861 951.6276568489848 360.6833598163217 Q 955.0709227751099 364.5406893664745 961.0421560900356 364.5406893664745 Z M 1027.2487502898339 380.3840711911135 L 1027.2487502898339 380.3840711911135 Q 1022.6940504255291 380.3840711911135 1020.5147681938045 377.87789662462995 Q 1018.3136931397623 375.37172205814653 1018.3136931397623 369.0953892307792 L 1018.3136931397623 369.0953892307792 Q 1018.3136931397623 366.1097725733163 1018.7713424084245 361.4025229527908 Q 1019.2507844994041 356.69527333226534 1019.8827763466041 351.20348210831895 L 1019.8827763466041 351.20348210831895 Q 1020.8198677062458 344.4477071899723 1021.5172380203976 337.08173324674254 Q 1022.2364011568668 329.69396648119556 1022.2364011568668 322.95998438516614 L 1022.2364011568668 322.95998438516614 Q 1022.2364011568668 313.3929353878944 1021.364688264177 303.10672325415356 Q 1020.5147681938045 292.8205111204127 1016.5920601766998 285.1494376647415 L 1016.5920601766998 285.1494376647415 Q 1015.1755267260787 282.0112712510579 1015.1755267260787 280.59473780043686 L 1015.1755267260787 280.59473780043686 Q 1015.1755267260787 278.54621250261556 1016.9843309784103 276.6720297833323 Q 1018.7713424084245 274.7760542417317 1021.451859553446 273.44669208037965 Q 1024.1105838761503 272.1173299190275 1026.6167584426337 272.1173299190275 L 1026.6167584426337 272.1173299190275 Q 1030.7138090382762 272.1173299190275 1032.7405415137803 275.8003168906423 Q 1034.7890668116015 279.48330386225723 1035.4210586588017 285.8468079788935 Q 1036.0312576836845 292.2103120955298 1036.0312576836845 300.36082764218037 L 1036.0312576836845 300.36082764218037 Q 1036.0312576836845 312.7609435406942 1035.0287878570912 321.8485504469865 Q 1034.0045252081807 330.95795017559595 1033.067433848539 337.8662748501634 L 1033.067433848539 337.8662748501634 Q 1032.4354420013387 342.4209747144682 1031.8906214434076 346.4962324877935 Q 1031.324008063159 350.57149026111875 1031.324008063159 353.86220643102314 L 1031.324008063159 353.86220643102314 Q 1031.324008063159 359.35399765496953 1033.1328123154906 361.7947937545013 Q 1034.9416165678222 364.2137970317157 1039.0168743411475 366.5674218419785 L 1039.0168743411475 366.5674218419785 Q 1040.1283082793273 367.1994136891787 1040.6731288372584 367.7442342471099 Q 1041.2179493951894 368.3108476273583 1041.2179493951894 369.4004887432207 L 1041.2179493951894 369.4004887432207 Q 1041.2179493951894 370.664472437621 1039.953965700789 373.3231967603252 Q 1038.711774828706 375.9819210830295 1035.6389868819742 378.1829961370715 Q 1032.5879917575594 380.3840711911135 1027.2487502898339 380.3840711911135 Z M 1076.0428794581512 380.8635132820929 L 1076.0428794581512 380.8635132820929 Q 1064.1222056506167 380.8635132820929 1057.453602021539 374.0205670744771 Q 1050.7849983924611 367.1994136891787 1050.7849983924611 354.97364036920277 L 1050.7849983924611 354.97364036920277 Q 1050.7849983924611 343.8157153427721 1055.6447977692073 334.7281084364798 Q 1060.526389968271 325.6187087078703 1068.7640768041904 320.21408877319294 Q 1077.00176364011 314.7876760161983 1086.8739121498234 314.7876760161983 L 1086.8739121498234 314.7876760161983 Q 1096.288411390874 314.7876760161983 1101.9327523710413 319.429547169772 Q 1107.5988861735257 324.0496255010285 1107.5988861735257 331.7424917790169 L 1107.5988861735257 331.7424917790169 Q 1107.5988861735257 337.8662748501634 1103.8287279126419 343.0311737393511 Q 1100.058569651758 348.217865450856 1093.7822368243906 351.2688605752707 Q 1087.5059039970233 354.3416485220026 1079.813037719035 354.3416485220026 L 1079.813037719035 354.3416485220026 Q 1070.398538477984 354.3416485220026 1064.4490979853754 350.0920481701393 L 1064.4490979853754 350.0920481701393 Q 1064.601647741596 357.32726517946554 1069.3742758290734 361.7076224652323 Q 1074.1686967388678 366.1097725733163 1081.7090132606354 366.1097725733163 L 1081.7090132606354 366.1097725733163 Q 1086.241920302623 366.1097725733163 1091.0363412124175 364.4535180772055 Q 1095.830762122212 362.81905640341193 1099.2740280483372 359.98598950216973 L 1099.2740280483372 359.98598950216973 Q 1101.475103102379 358.1118067828864 1103.3492858216623 358.1118067828864 L 1103.3492858216623 358.1118067828864 Q 1104.9183690285042 358.1118067828864 1105.9426316774147 359.1142766094799 Q 1106.9668943263255 360.1385392583905 1106.9668943263255 361.7076224652323 L 1106.9668943263255 361.7076224652323 Q 1106.9668943263255 365.1726812136747 1100.9956610113995 370.81702219384175 L 1100.9956610113995 370.81702219384175 Q 1090.4915206544863 380.8635132820929 1076.0428794581512 380.8635132820929 Z M 1078.396504268414 343.99005792131 L 1078.396504268414 343.99005792131 Q 1084.0626380708982 343.99005792131 1087.8110035094649 341.6364331110473 Q 1091.5811617703487 339.28280830078455 1091.5811617703487 335.6651997961214 L 1091.5811617703487 335.6651997961214 Q 1091.5811617703487 332.67958313865853 1089.0749872038652 331.04512146486496 Q 1086.5688126373816 329.38886696875414 1082.1666625292978 329.38886696875414 L 1082.1666625292978 329.38886696875414 Q 1076.36977179291 329.38886696875414 1072.0547929740947 332.43986209316876 Q 1067.7398141552799 335.51265003990073 1065.8438386136793 341.0044412638471 L 1065.8438386136793 341.0044412638471 Q 1068.0449136677212 342.4209747144682 1071.5099724161637 343.20551631788913 Q 1074.9532383422888 343.99005792131 1078.396504268414 343.99005792131 Z" strokeLinecap="round" />
    </g>
</svg>