<svg id="favicon" xmlns="http://www.w3.org/2000/svg" width="16" height="16" viewBox="0 0 16 16">
  <rect id="Rectangle_42" data-name="Rectangle 42" width="16" height="16" rx="4" fill="#1770fe"/>
  <path id="Union_1" data-name="Union 1" d="M6.174,9.9,5.627,8.882H2.575A2.593,2.593,0,0,1,0,6.279V2.6A2.593,2.593,0,0,1,2.575,0H7.424A2.593,2.593,0,0,1,10,2.6V6.279a2.593,2.593,0,0,1-2.576,2.6H7.351l.155.288a.77.77,0,0,1-.3,1.038.745.745,0,0,1-.361.093A.757.757,0,0,1,6.174,9.9Zm1.25-2.551A1.068,1.068,0,0,0,8.485,6.279V2.6A1.068,1.068,0,0,0,7.424,1.532H2.575A1.067,1.067,0,0,0,1.515,2.6V6.279a1.067,1.067,0,0,0,1.06,1.072H4.8l-.47-.874a.77.77,0,0,1,.3-1.038.753.753,0,0,1,1.027.308l.862,1.6Z" transform="translate(3 3.5)" fill="#fff"/>
</svg>
